<?xml version="1.0" standalone="no"?>
<!DOCTYPE svg PUBLIC "-//W3C//DTD SVG 20010904//EN"
 "http://www.w3.org/TR/2001/REC-SVG-20010904/DTD/svg10.dtd">
<svg version="1.0" xmlns="http://www.w3.org/2000/svg"
 width="180.000000pt" height="263.000000pt" viewBox="0 0 180.000000 263.000000"
 preserveAspectRatio="xMidYMid meet">

<g transform="translate(0.000000,263.000000) scale(0.100000,-0.100000)"
fill="#000000" stroke="none">
<path d="M415 2511 c-46 -12 -68 -26 -114 -76 -101 -110 -151 -294 -151 -565
0 -257 42 -541 140 -935 72 -292 84 -393 78 -632 -3 -100 -2 -187 3 -195 7
-11 123 -14 623 -16 595 -2 616 -2 635 17 37 37 40 359 6 585 -8 50 -37 179
-64 286 -27 107 -61 259 -76 336 l-26 142 59 58 c64 65 109 147 138 254 25 92
25 311 1 400 -42 154 -127 278 -222 325 -38 19 -64 20 -520 22 -264 1 -493 -2
-510 -6z m132 -161 c95 -58 158 -272 133 -457 -19 -145 -68 -254 -133 -293
-40 -25 -64 -25 -104 0 -126 76 -177 379 -102 597 35 102 98 173 154 173 11 0
34 -9 52 -20z m855 2 c84 -56 138 -201 138 -375 0 -114 -13 -181 -50 -262 -35
-77 -78 -120 -134 -134 -40 -10 -626 -17 -626 -8 0 2 13 30 29 63 52 103 65
173 66 334 0 161 -15 241 -64 343 l-28 57 321 0 c290 0 324 -2 348 -18z
m-1002 -897 c32 -17 71 -18 483 -16 l447 2 0 -23 c0 -40 69 -366 111 -528 51
-194 69 -325 69 -512 l0 -148 -493 0 -494 0 -6 183 c-8 220 -22 318 -81 547
-49 191 -92 392 -102 486 -7 57 -6 59 12 43 10 -9 35 -25 54 -34z"/>
</g>
</svg>
